# xmcd CD database file
#
# Track frame offsets:
#	150
#	13433
#	28314
#	40339
#	52794
#	66908
#	81470
#	95694
#	110199
#	127167
#	139668
#	153729
#	170046
#	185011
#	197540
#	211389
#	226224
#	241858
#
# Disc length: 3424 seconds
#
# Revision: 0
# Processed by: cddbd v1.5.2PL0 Copyright (c) Steve Scherf et al.
# Submitted via: CDex 1.70beta2
#
DISCID=110d5e12
DTITLE=Duke Ellington - The Collection
DYEAR=2006
DGENRE=Jazz
TTITLE0=Take The "A" Train
TTITLE1=Slippery Horn
TTITLE2=Stormy Weather
TTITLE3=Ko-Ko
TTITLE4=Black and Tan Fantasy
TTITLE5=Creole Love Call
TTITLE6=Mood Indigo
TTITLE7=It Don't Mean A Thing (If You Ain't GotThat Swing)
TTITLE8=Sophisticated Lady
TTITLE9=Caravan
TTITLE10=I Let A Song Go Out Of My Heart
TTITLE11=East St. Louis Toodle-Oo
TTITLE12=I Got It Bad And That Ain't Good
TTITLE13=Chelsea Bridge
TTITLE14=Perdido
TTITLE15=I'm Begining To See The Light
TTITLE16=Kissin' My Baby Goodnight
TTITLE17=In The Shade Of The Old Apple Tree
EXTD=YEAR: 2006
EXTT0=
EXTT1=
EXTT2=
EXTT3=
EXTT4=
EXTT5=
EXTT6=
EXTT7=
EXTT8=
EXTT9=
EXTT10=
EXTT11=
EXTT12=
EXTT13=
EXTT14=
EXTT15=
EXTT16=
EXTT17=
PLAYORDER=
